<svg xmlns="http://www.w3.org/2000/svg" viewBox="0 0 622.89 162.37"><path d="M-4.78,450.59c42.05-3.93,85.55,14.38,112.13,47.19,7.06,8.72,13,18.38,20.8,26.45,20.88,21.58,52.7,29.16,82.72,28.68S270.3,545,300.06,541a384.49,384.49,0,0,1,157.29,11.84c14,4,27.68,8.9,41.71,12.71A295.39,295.39,0,0,0,617.45,573v39.47H-4.78Z" transform="translate(5.45 -450.06)" style="fill:#f5faf7"/><g style="opacity:0.5"><path d="M615.81,576.67c-36.66-24.86-83.28-29.95-127.16-25.69s-86.49,17-129.87,25A605.43,605.43,0,0,1,197,583.75c-21.89-1.9-43.76-5-64.88-11.15-19-5.54-37.3-13.49-55.49-21.42l-82-35.75v97H615.81Z" transform="translate(5.45 -450.06)" style="fill:#dce5e0"/></g></svg>